<svg version="1.1" xmlns="http://www.w3.org/2000/svg" xmlns:xlink="http://www.w3.org/1999/xlink">
    <defs>
        <symbol id="icon-arrow" viewBox="0 0 32 32">
            <path d="M25.867 3.733l-3.733-3.733-16 16 16 16 3.733-3.733-12.267-12.267 12.267-12.267z"></path>
        </symbol>
        <symbol id="icon-back" viewBox="0 0 32 32">
            <path d="M32 14h-24.4l11.2-11.2-2.8-2.8-16 16 16 16 2.8-2.8-11.2-11.2h24.4v-4z"></path>
        </symbol>
        <symbol id="icon-history" viewBox="0 0 32 32">
            <path d="M16.8 0.8c-5.6 0-10.56 3.040-13.12 7.68l-3.68-3.68v10.4h10.4l-4.48-4.48c2.080-4 6.080-6.72 10.88-6.72 6.56 0 12 5.44 12 12s-5.44 12-12 12c-5.28 0-9.6-3.36-11.36-8h-3.36c1.76 6.4 7.68 11.2 14.72 11.2 8.48 0 15.2-6.88 15.2-15.2s-6.88-15.2-15.2-15.2zM14.4 8.8v8.16l7.52 4.48 1.28-2.080-6.4-3.84v-6.72h-2.4z"></path>
        </symbol>
        <symbol id="icon-car" viewBox="0 0 32 32">
            <path d="M28.267 3.556c-0.356-1.067-1.422-1.778-2.489-1.778h-19.555c-1.244 0-2.133 0.711-2.489 1.778l-3.733 10.667v14.222c0 1.067 0.711 1.778 1.778 1.778h1.778c1.067 0 1.778-0.711 1.778-1.778v-1.778h21.333v1.778c0 1.067 0.711 1.778 1.778 1.778h1.778c1.067 0 1.778-0.711 1.778-1.778v-14.222l-3.733-10.667zM6.222 21.333c-1.422 0-2.667-1.244-2.667-2.667s1.244-2.667 2.667-2.667 2.667 1.245 2.667 2.667c0 1.422-1.244 2.667-2.667 2.667zM25.778 21.333c-1.422 0-2.667-1.244-2.667-2.667s1.245-2.667 2.667-2.667c1.422 0 2.667 1.245 2.667 2.667s-1.244 2.667-2.667 2.667zM3.556 12.444l2.667-8h19.555l2.667 8h-24.889z"></path>
        </symbol>
        <symbol id="icon-camera" viewBox="0 0 32 32">
            <path d="M16 22.72c2.828 0 5.12-2.292 5.12-5.12s-2.292-5.12-5.12-5.12c-2.828 0-5.12 2.292-5.12 5.12s2.292 5.12 5.12 5.12z"></path>
            <path d="M11.2 1.6l-2.88 3.2h-5.12c-1.76 0-3.2 1.44-3.2 3.2v19.2c0 1.76 1.44 3.2 3.2 3.2h25.6c1.76 0 3.2-1.44 3.2-3.2v-19.2c0-1.76-1.44-3.2-3.2-3.2h-5.12l-2.88-3.2h-9.6zM16 25.6c-4.48 0-8-3.52-8-8s3.52-8 8-8 8 3.52 8 8c0 4.48-3.52 8-8 8z"></path>
        </symbol>
        <symbol id="icon-close" viewBox="0 0 32 32">
            <path d="M32 3.2l-3.2-3.2-12.8 12.8-12.8-12.8-3.2 3.2 12.8 12.8-12.8 12.8 3.2 3.2 12.8-12.8 12.8 12.8 3.2-3.2-12.8-12.8 12.8-12.8z"></path>
        </symbol>
        <symbol id="icon-burger" viewBox="0 0 32 32">
            <path d="M0 21.647h32v-3.765h-32v3.765zM0 29.177h32v-3.765h-32v3.765zM0 14.118h32v-3.765h-32v3.765zM0 2.824v3.765h32v-3.765h-32z"></path>
        </symbol>
        <symbol id="icon-search" viewBox="0 0 32 32">
            <path d="M22.857 20.114h-1.463l-0.549-0.549c1.829-2.011 2.926-4.754 2.926-7.68 0-6.583-5.303-11.886-11.886-11.886s-11.886 5.303-11.886 11.886c0 6.583 5.303 11.886 11.886 11.886 2.926 0 5.669-1.097 7.68-2.926l0.549 0.549v1.463l9.143 9.143 2.743-2.743-9.143-9.143zM11.886 20.114c-4.571 0-8.229-3.657-8.229-8.229s3.657-8.229 8.229-8.229c4.571 0 8.229 3.657 8.229 8.229s-3.657 8.229-8.229 8.229z"></path>
        </symbol>
        <symbol id="icon-arrow-bottom" viewBox="0 0 32 32">
            <path d="M3.733 6.133l-3.733 3.733 16 16 16-16-3.733-3.733-12.267 12.267-12.267-12.267z"></path>
        </symbol>
        <symbol id="icon-arrow-left" viewBox="0 0 32 32">
            <path d="M25.867 3.733l-3.733-3.733-16 16 16 16 3.733-3.733-12.267-12.267 12.267-12.267z"></path>
        </symbol>
        <symbol id="icon-arrow-right" viewBox="0 0 32 32">
            <path d="M6.133 28.267l3.733 3.733 16-16-16-16-3.733 3.733 12.267 12.267-12.267 12.267z"></path>
        </symbol>
    </defs>
</svg>